<svg xmlns="http://www.w3.org/2000/svg" viewBox="0 0 80 80" fill="none">
  <!-- Shield outline -->
  <path d="M 40 12 L 60 20 L 60 40 C 60 55 50 65 40 68 C 30 65 20 55 20 40 L 20 20 Z" stroke="#3A4A5A" stroke-width="3" fill="white"/>
  
  <!-- Network nodes at corners -->
  <circle cx="40" cy="15" r="2.5" fill="#3A4A5A"/>
  <circle cx="57" cy="23" r="2.5" fill="#3A4A5A"/>
  <circle cx="23" cy="23" r="2.5" fill="#3A4A5A"/>
  <circle cx="23" cy="45" r="2.5" fill="#3A4A5A"/>
  <circle cx="57" cy="45" r="2.5" fill="#3A4A5A"/>
  
  <!-- Connection lines (subtle) -->
  <line x1="40" y1="15" x2="40" y2="35" stroke="#3A4A5A" stroke-width="1" opacity="0.3"/>
  <line x1="23" y1="23" x2="40" y2="35" stroke="#3A4A5A" stroke-width="1" opacity="0.3"/>
  <line x1="57" y1="23" x2="40" y2="35" stroke="#3A4A5A" stroke-width="1" opacity="0.3"/>
  
  <!-- Star (centered) -->
  <path d="M 40 32 L 42 38 L 48 38 L 43 42 L 45 48 L 40 44 L 35 48 L 37 42 L 32 38 L 38 38 Z" fill="#4A90E2" stroke="none"/>
</svg>
